<?xml version="1.0" standalone="no"?>
<!DOCTYPE svg PUBLIC "-//W3C//DTD SVG 20010904//EN"
 "http://www.w3.org/TR/2001/REC-SVG-20010904/DTD/svg10.dtd">
<svg version="1.0" xmlns="http://www.w3.org/2000/svg"
 width="728.000000pt" height="507.000000pt" viewBox="0 0 728.000000 507.000000"
 preserveAspectRatio="xMidYMid meet">

<g transform="translate(0.000000,507.000000) scale(0.100000,-0.100000)"
fill="#000000" stroke="none">
<path d="M5972 5041 c-101 -56 -290 -201 -409 -314 l-42 -40 -83 55 c-88 60
-215 138 -223 138 -13 0 -3 -19 13 -25 9 -3 42 -28 72 -56 30 -28 81 -73 112
-101 l58 -51 -213 -216 c-228 -232 -541 -579 -777 -861 -158 -190 -492 -605
-531 -662 -3 -5 -46 5 -95 21 -136 46 -259 64 -390 59 -92 -4 -115 -2 -131 11
-11 9 -90 122 -175 251 -529 806 -984 1334 -1200 1391 -58 16 -111 5 -151 -31
-31 -28 -32 -31 -32 -112 0 -75 3 -90 38 -162 43 -91 144 -248 225 -350 53
-67 200 -245 212 -256 3 -3 52 -56 110 -119 l105 -114 -110 84 c-60 47 -180
137 -265 200 -253 187 -311 228 -457 326 -57 37 -103 71 -103 75 0 5 16 26 36
48 20 22 33 44 29 48 -4 4 -24 -12 -45 -35 -21 -24 -41 -43 -46 -43 -12 0
-214 131 -214 139 0 20 517 511 551 523 8 3 11 8 8 12 -9 9 -164 -86 -282
-171 -113 -82 -199 -154 -294 -247 l-72 -70 -128 61 c-70 34 -145 67 -165 74
-21 7 -38 16 -38 19 0 8 107 111 158 152 17 15 32 29 32 32 0 18 -30 -4 -118
-89 l-99 -94 -39 11 c-66 18 -156 14 -195 -8 -79 -47 -100 -156 -55 -288 l24
-70 -23 -36 c-82 -130 -188 -380 -236 -555 -57 -213 -72 -326 -74 -595 -2
-135 0 -258 4 -275 4 -16 7 74 7 200 -1 236 8 337 45 524 26 128 87 323 141
445 40 93 139 276 148 276 3 0 23 -25 45 -56 22 -31 76 -91 120 -135 l81 -79
-52 -108 c-131 -271 -203 -565 -221 -899 -6 -112 -8 -123 -25 -123 -38 0 -174
-32 -221 -52 -51 -22 -87 -59 -87 -89 0 -47 95 -89 253 -113 48 -7 90 -16 93
-18 2 -3 11 -43 18 -89 8 -46 24 -127 35 -179 24 -108 25 -120 10 -120 -21 0
-182 -80 -243 -121 -76 -52 -119 -92 -158 -147 -40 -58 -33 -87 25 -103 50
-14 243 -6 392 16 55 8 105 15 111 15 5 0 36 -51 66 -112 62 -124 161 -284
235 -381 58 -76 212 -237 226 -237 6 0 -1 13 -16 28 -57 59 -296 491 -378 684
l-16 37 71 12 c39 6 126 21 193 34 l123 22 29 -51 c16 -28 36 -60 45 -71 22
-29 20 1 -2 33 -21 30 -47 91 -41 95 6 4 333 67 334 64 57 -94 234 -307 256
-307 5 0 -26 40 -70 90 -74 84 -161 203 -161 220 0 7 57 20 90 20 9 0 40 -19
70 -41 69 -53 142 -87 219 -102 59 -12 62 -14 128 -97 38 -46 97 -109 133
-139 36 -30 66 -57 68 -61 1 -4 -63 -128 -144 -276 -80 -148 -189 -348 -242
-444 -52 -96 -113 -209 -135 -250 -22 -41 -58 -106 -79 -145 -67 -122 -116
-229 -123 -267 -7 -36 -6 -38 18 -38 31 0 68 41 206 224 201 268 542 741 721
999 35 50 59 76 68 72 20 -7 138 -24 194 -27 l46 -3 -60 -110 -61 -110 -4
-267 -4 -268 49 0 50 0 6 147 c16 377 16 372 46 417 16 22 54 80 85 128 51 79
60 89 98 98 74 19 81 22 149 56 l67 34 -60 -123 -60 -122 3 -158 3 -158 48 37
47 37 0 128 0 129 106 145 107 145 83 0 c46 0 84 -3 84 -7 1 -5 7 -71 14 -148
l13 -140 -61 -65 c-102 -108 -181 -192 -229 -245 -45 -48 -47 -53 -47 -110 l0
-59 38 35 c44 41 113 104 285 259 l127 115 0 182 0 183 43 0 c23 0 65 3 93 6
l51 6 36 -85 c20 -47 37 -88 37 -91 0 -3 -40 -65 -88 -138 -49 -73 -119 -180
-157 -238 -38 -58 -93 -143 -123 -189 l-54 -83 12 -44 c7 -25 16 -47 20 -49 5
-3 83 102 176 233 92 130 210 297 261 370 l94 134 -29 86 c-16 48 -31 93 -33
101 -3 9 14 17 59 27 35 7 71 15 81 19 14 4 22 -4 36 -34 17 -38 17 -42 -2
-103 -11 -35 -84 -270 -162 -523 -78 -253 -144 -466 -146 -472 -3 -9 11 -13
48 -13 l52 0 69 207 c38 115 107 322 154 461 l84 253 62 -113 c153 -278 283
-464 435 -623 235 -246 472 -430 697 -543 177 -88 207 -96 395 -100 162 -4
168 -3 217 22 27 14 63 41 80 61 64 79 67 165 13 377 -74 286 -157 519 -260
727 -28 57 -51 107 -51 113 0 5 18 36 41 69 31 46 45 59 57 53 200 -85 541
-199 658 -219 174 -30 198 12 94 165 -79 116 -233 237 -461 362 l-115 63 12
30 c7 17 27 72 45 123 28 84 33 93 53 88 11 -2 66 -10 121 -15 408 -43 555
-29 555 55 0 76 -245 195 -540 261 -79 17 -81 19 -76 44 3 15 12 91 22 170 30
259 8 576 -57 828 -16 64 -26 117 -21 119 4 1 73 41 151 88 79 47 144 84 146
82 1 -2 14 -48 28 -103 58 -224 83 -463 73 -705 -8 -190 3 -210 15 -28 15 230
-15 523 -76 755 l-24 92 57 58 c70 70 91 123 69 175 -27 63 -89 96 -198 105
l-69 6 -32 56 c-94 167 -220 339 -344 470 l-66 71 32 76 c66 160 79 333 27
366 -7 4 -48 8 -92 8 -69 0 -87 -4 -133 -29z m207 -7 c38 -48 25 -171 -32
-317 l-30 -77 -48 45 c-26 25 -54 45 -61 45 -7 0 11 -22 40 -48 29 -26 52 -53
52 -60 0 -12 -21 -54 -54 -107 -76 -121 -119 -185 -125 -185 -4 0 -45 39 -91
86 -47 47 -125 120 -175 162 -49 41 -94 79 -100 84 -24 21 314 293 443 357 74
37 80 39 124 40 28 1 41 -5 57 -25z m-4469 -257 c0 -2 -68 -66 -150 -142 -335
-309 -559 -594 -710 -900 -148 -300 -211 -570 -210 -900 0 -521 168 -1034 544
-1660 27 -46 -42 32 -114 128 -230 304 -400 718 -466 1132 -25 159 -30 483
-10 648 38 310 147 630 302 886 164 269 427 544 714 745 94 65 100 69 100 63z
m3773 -85 c795 -567 1142 -1451 946 -2407 -79 -380 -264 -777 -492 -1052 -52
-63 -78 -91 -64 -65 3 4 24 38 47 77 61 99 191 351 248 480 311 702 338 1365
79 1940 -47 105 -147 282 -212 375 -123 179 -361 439 -600 660 -94 87 -83 85
48 -8z m-3488 -96 c68 -31 184 -126 286 -233 75 -79 241 -274 294 -344 11 -14
61 -80 111 -145 177 -234 581 -821 570 -831 -2 -3 -18 3 -34 11 -42 22 -198
66 -233 66 -21 0 -72 33 -196 127 -93 69 -177 136 -188 147 -11 12 -69 73
-130 137 -436 456 -675 799 -675 970 0 60 11 83 48 103 39 22 90 19 147 -8z
m3627 -100 c68 -68 150 -153 182 -189 l58 -66 -79 -96 c-43 -53 -82 -103 -87
-110 -7 -9 -21 4 -54 49 -61 83 -162 196 -175 196 -6 0 -1 -10 10 -22 43 -47
163 -255 163 -283 0 -15 -296 -328 -516 -545 -242 -238 -485 -462 -748 -688
l-128 -111 -169 85 c-93 47 -169 87 -169 90 0 2 23 35 52 72 99 128 232 297
281 357 27 33 66 80 86 105 203 251 505 601 700 810 157 169 453 470 462 470
4 0 63 -56 131 -124z m593 18 c103 -116 214 -266 286 -388 l60 -101 -53 -8
c-50 -7 -248 -44 -294 -54 -17 -4 -31 11 -80 83 -32 49 -88 126 -125 172 l-68
84 39 57 c53 78 140 223 140 233 0 21 25 1 95 -78z m-5407 9 l24 -6 -34 -36
c-47 -50 -107 -125 -154 -193 -21 -32 -42 -58 -46 -58 -17 0 -40 105 -36 166
5 75 27 113 79 131 32 12 111 10 167 -4z m102 -34 c55 -21 223 -100 249 -117
10 -8 -5 -32 -70 -109 -72 -86 -220 -293 -232 -327 -6 -16 -150 127 -204 202
l-46 63 56 82 c62 90 173 227 185 227 4 0 32 -9 62 -21z m483 -256 c48 -30 87
-58 87 -62 0 -5 -15 -28 -34 -52 -72 -95 -153 -229 -201 -331 -28 -60 -53
-108 -58 -108 -17 0 -247 173 -247 186 0 28 207 319 293 411 35 37 26 40 160
-44z m4594 -157 c51 -70 93 -133 93 -139 -1 -13 -283 -110 -288 -98 -1 4 -22
41 -45 82 l-43 76 84 107 c47 59 89 105 95 103 6 -2 52 -61 104 -131z m-4374
11 c240 -165 503 -358 792 -581 147 -113 366 -281 438 -335 l48 -36 -77 -7
c-114 -11 -179 -26 -275 -64 -48 -19 -91 -34 -97 -34 -45 0 -809 379 -1024
508 -76 46 -138 84 -138 87 0 15 71 201 113 295 51 114 113 230 123 230 3 0
47 -28 97 -63z m-183 -49 c-112 -215 -210 -514 -259 -798 -71 -405 -50 -863
55 -1209 14 -45 23 -85 21 -88 -8 -7 -67 157 -102 282 -62 228 -85 417 -80
670 7 434 122 823 334 1130 93 136 96 137 31 13z m4240 -25 c163 -246 261
-516 311 -848 18 -119 18 -500 0 -625 -27 -190 -67 -350 -133 -523 -35 -91
-45 -98 -19 -12 129 414 137 978 20 1438 -53 211 -125 409 -210 580 -27 53
-47 97 -44 97 2 0 36 -48 75 -107z m953 -125 c24 -57 50 -121 57 -142 12 -37
11 -41 -10 -58 -28 -22 -261 -158 -274 -158 -5 -1 -26 43 -46 97 -20 54 -60
144 -88 200 l-52 102 38 10 c35 9 167 36 222 44 14 2 44 5 66 6 l42 1 45 -102z
m136 74 c19 -9 44 -29 55 -44 17 -25 18 -31 7 -70 -12 -40 -86 -128 -107 -128
-7 1 -34 63 -113 263 -6 16 118 -1 158 -21z m-1069 -84 c14 -35 26 -66 28 -69
2 -4 -41 -24 -95 -44 -54 -21 -120 -48 -146 -61 -27 -12 -47 -19 -45 -14 4 13
220 250 227 250 4 0 17 -28 31 -62z m471 -73 c61 -113 143 -310 136 -327 -4
-12 -316 -183 -321 -176 -1 2 -14 54 -29 117 -24 100 -72 241 -121 352 l-15
37 137 45 c75 25 143 45 151 44 7 -1 35 -42 62 -92z m-5111 -66 c71 -50 130
-94 130 -98 0 -4 -13 -47 -30 -95 -59 -175 -96 -409 -102 -638 l-3 -108 -70 0
c-38 0 -128 -3 -199 -7 l-129 -6 6 124 c17 304 81 554 210 817 27 56 52 102
53 102 2 0 62 -41 134 -91z m4717 -69 c41 -123 105 -384 101 -412 -2 -19 -121
-81 -708 -375 -388 -193 -716 -354 -730 -358 -21 -5 -37 3 -82 42 -31 26 -57
51 -57 55 -1 4 63 62 142 130 78 67 171 149 207 182 36 33 85 77 110 100 105
93 187 172 395 376 l220 216 100 42 c55 23 132 55 170 71 39 16 77 28 85 27
10 -1 27 -36 47 -96z m-4315 -186 c177 -103 596 -314 788 -399 85 -37 159 -71
163 -75 4 -4 -11 -19 -35 -35 -24 -15 -52 -36 -64 -47 -18 -16 -39 -19 -145
-21 -113 -2 -131 -5 -204 -35 -48 -19 -106 -52 -142 -81 l-62 -50 -108 14
c-59 8 -125 15 -145 15 -45 0 -45 1 -23 135 17 107 17 105 6 105 -4 0 -14 -42
-20 -92 -21 -157 1 -139 -164 -132 -78 4 -145 9 -149 13 -11 10 9 255 32 397
19 118 75 368 87 387 3 4 15 1 28 -7 13 -8 83 -50 157 -92z m4888 -126 c50
-183 63 -291 64 -513 1 -246 -24 -465 -53 -465 -9 0 -65 9 -125 20 -60 10
-140 22 -178 26 -68 7 -69 7 -64 33 32 155 39 537 13 711 -13 86 -13 96 2 105
57 34 298 163 307 164 7 1 22 -36 34 -81z m-457 -170 c21 -82 31 -243 31 -463
0 -137 -3 -257 -6 -266 -5 -13 -18 -14 -84 -8 -44 5 -108 11 -144 14 l-65 6 3
154 c3 107 -1 188 -13 267 -9 62 -18 115 -21 117 -13 14 -13 -17 3 -100 15
-86 25 -421 12 -433 -2 -3 -103 0 -224 5 -121 5 -341 7 -490 3 -269 -6 -270
-6 -324 18 l-54 23 679 341 c374 188 682 342 685 343 4 0 9 -9 12 -21z m-3035
-95 c-10 -2 -26 -2 -35 0 -10 3 -2 5 17 5 19 0 27 -2 18 -5z m-85 -10 c-7 -2
-21 -2 -30 0 -10 3 -4 5 12 5 17 0 24 -2 18 -5z m247 3 c0 -2 -13 -6 -29 -8
-17 -2 -28 -1 -25 4 5 8 54 12 54 4z m-400 -36 c-8 -5 -19 -10 -25 -10 -5 0
-3 5 5 10 8 5 20 10 25 10 6 0 3 -5 -5 -10z m560 -10 c8 -5 11 -10 5 -10 -5 0
-17 5 -25 10 -8 5 -10 10 -5 10 6 0 17 -5 25 -10z m-805 -120 c-3 -5 -16 -15
-28 -21 -21 -10 -21 -9 2 10 25 23 36 27 26 11z m900 -10 c3 -5 2 -10 -4 -10
-5 0 -13 5 -16 10 -3 6 -2 10 4 10 5 0 13 -4 16 -10z m48 3 c-7 -2 -19 -2 -25
0 -7 3 -2 5 12 5 14 0 19 -2 13 -5z m-237 -27 c-1 -11 5 -21 13 -24 8 -3 11 0
7 7 -4 6 -1 11 6 11 10 0 10 2 -1 9 -9 6 1 8 30 7 24 -2 57 1 73 5 20 6 26 5
20 -1 -6 -6 -20 -12 -32 -15 -11 -2 -30 -9 -41 -15 -14 -7 -21 -7 -21 0 0 5
-4 10 -10 10 -5 0 -7 -6 -4 -13 6 -18 -69 -60 -84 -47 -9 7 -9 7 -2 -2 6 -8
-6 -26 -40 -60 -212 -209 -224 -550 -26 -782 25 -29 42 -57 38 -61 -4 -5 -1
-5 5 -1 7 4 27 -4 45 -17 99 -74 226 -111 362 -105 49 2 80 1 70 -3 -10 -4
-59 -9 -109 -10 -49 -1 -79 -4 -65 -6 14 -3 30 -9 35 -15 7 -7 3 -8 -12 -3
-13 3 -28 3 -35 -2 -9 -5 -3 -10 17 -14 l30 -7 -32 -1 c-18 0 -33 4 -33 10 0
5 -4 7 -10 4 -16 -10 -12 -25 8 -26 14 -1 13 -2 -3 -6 -11 -3 -27 -11 -35 -17
-8 -7 -37 -21 -65 -31 -27 -10 -52 -21 -55 -24 -11 -13 -79 -31 -118 -31 -23
0 -42 -4 -42 -10 0 -5 -20 -10 -45 -10 -38 0 -43 3 -38 18 5 14 4 15 -8 4 -11
-10 -11 -16 -1 -32 14 -23 9 -25 -20 -9 -16 8 -23 8 -30 -2 -5 -9 -6 -3 -2 16
6 28 5 29 -8 11 -9 -11 -14 -27 -13 -35 1 -9 0 -10 -2 -3 -4 10 -9 8 -19 -7
-11 -16 -12 -26 -4 -41 6 -11 8 -20 6 -20 -3 0 -10 9 -16 20 -8 16 -3 31 33
87 60 94 70 124 65 184 -9 90 -74 149 -164 149 -47 0 -59 -4 -92 -35 -21 -19
-62 -76 -91 -127 -29 -51 -55 -95 -57 -97 -2 -2 -10 2 -19 9 -12 10 -13 16 -4
26 6 8 18 14 25 14 10 0 14 12 13 38 -1 23 -3 28 -6 15 -9 -46 -29 -15 -25 37
0 3 -17 6 -39 6 -21 1 -39 -2 -39 -7 0 -5 8 -9 17 -9 9 0 14 -2 11 -5 -3 -3
-24 -3 -47 1 l-42 7 48 17 c89 31 123 52 197 121 121 113 176 243 176 414 0
104 -17 175 -60 259 -16 32 -27 63 -23 69 3 5 2 7 -4 4 -14 -9 -80 75 -78 100
1 12 -2 20 -7 17 -5 -4 -7 -12 -5 -19 3 -6 -27 10 -66 36 -40 27 -77 49 -83
49 -6 0 -17 7 -25 16 -8 9 6 6 35 -10 27 -14 53 -23 59 -19 6 3 7 1 3 -5 -8
-13 40 -36 55 -27 5 4 6 -1 3 -9 -3 -9 -1 -16 5 -16 6 0 11 4 11 9 0 5 11 9
25 10 14 1 36 1 50 2 17 1 25 7 25 19 0 15 10 20 48 25 26 4 63 11 82 16 47
12 197 12 205 -1 4 -6 13 -5 26 3 14 9 22 9 27 1 4 -7 15 -8 27 -3 16 6 17 8
3 8 -26 1 -29 16 -4 16 16 0 23 -6 22 -19z m-754 -26 c161 -50 304 -195 352
-359 20 -67 21 -217 2 -287 -58 -218 -251 -375 -482 -391 -301 -21 -564 230
-564 537 0 69 36 197 73 259 67 114 168 194 297 238 87 30 230 31 322 3z
m1203 5 c80 -21 148 -60 216 -123 115 -106 168 -227 169 -383 0 -59 -6 -116
-16 -150 -64 -216 -247 -367 -471 -386 -304 -26 -573 226 -573 537 0 69 36
197 73 259 98 165 264 260 452 261 50 0 117 -7 150 -15z m-2475 -142 c0 -27 5
-88 11 -136 6 -49 9 -91 6 -93 -5 -5 -265 11 -348 22 l-47 6 -6 66 c-4 37 -9
90 -12 119 l-6 52 63 4 c35 2 126 4 202 5 l137 2 0 -47z m308 31 l82 -6 0
-101 c0 -56 3 -120 7 -141 6 -37 5 -39 -18 -33 -13 3 -76 7 -140 8 -64 0 -121
4 -127 8 -5 3 -13 67 -17 142 l-8 137 69 -4 c38 -3 106 -7 152 -10z m-789
-115 c5 -57 8 -105 6 -107 -5 -5 -178 27 -231 43 -61 18 -93 48 -78 73 16 26
89 58 173 76 84 17 115 23 118 21 2 -1 7 -48 12 -106z m1159 76 c1 -1 -13 -25
-32 -53 -34 -51 -76 -149 -76 -177 0 -20 -148 -22 -155 -2 -5 15 -13 255 -9
260 4 4 267 -23 272 -28z m2447 -85 c3 -6 -1 -7 -9 -4 -18 7 -21 14 -7 14 6 0
13 -4 16 -10z m-220 -186 c9 -70 16 -92 32 -98 13 -6 14 -4 3 10 -19 22 2 34
59 34 44 0 81 -20 81 -45 0 -22 34 -45 50 -34 13 9 13 10 0 6 -10 -3 -16 2
-17 14 -2 17 0 18 13 4 9 -8 20 -13 25 -10 5 4 6 -2 2 -12 -6 -16 -5 -16 10
-4 15 12 17 11 17 -4 0 -33 109 -13 257 46 36 15 39 14 283 -53 376 -104 710
-207 710 -220 0 -25 -88 -178 -142 -250 l-28 -36 -153 67 c-83 38 -172 77
-197 89 -25 11 -85 38 -135 60 -49 22 -119 53 -155 70 -36 16 -146 67 -245
112 -99 45 -185 87 -192 92 -7 5 -22 7 -34 3 -14 -5 -19 -4 -15 4 11 17 0 13
-15 -6 -10 -11 -10 -14 -1 -9 6 4 12 3 12 -3 0 -5 -6 -11 -12 -13 -7 -3 2 -5
20 -5 19 0 38 -6 43 -14 5 -8 9 -11 9 -6 0 4 14 0 31 -8 17 -9 29 -19 26 -22
-3 -2 -14 0 -24 5 -10 5 -28 8 -41 7 -16 -1 -21 3 -18 12 3 8 2 12 -3 8 -5 -3
-12 1 -14 7 -4 9 -6 8 -6 -2 -1 -8 -14 -21 -30 -28 -17 -8 -28 -19 -25 -26 3
-7 -5 -20 -18 -28 -30 -19 -118 -13 -118 9 0 8 -5 11 -12 7 -7 -5 -9 -2 -5 9
4 11 2 14 -9 10 -8 -3 -14 1 -14 8 -1 20 -29 -33 -30 -54 0 -10 -4 -16 -9 -13
-8 6 -26 -50 -22 -69 2 -5 -1 -7 -5 -3 -4 4 -13 0 -21 -10 -17 -21 -15 -14 21
63 51 108 67 257 40 365 -5 19 -4 22 5 14 6 -6 14 -28 16 -50z m-3020 26 c76
-6 140 -12 141 -13 0 -1 9 -42 18 -91 10 -48 19 -93 22 -100 3 -8 -36 -22
-113 -40 -65 -16 -142 -37 -172 -48 -30 -10 -60 -18 -66 -18 -7 0 -20 26 -28
58 -17 58 -57 246 -57 264 0 6 22 8 58 4 31 -3 120 -11 197 -16z m3052 -32
c-3 -7 -5 -2 -5 12 0 14 2 19 5 13 2 -7 2 -19 0 -25z m-2536 4 c4 -4 10 -32
13 -63 l7 -56 -142 -27 c-78 -15 -143 -26 -144 -24 -3 4 -25 154 -25 171 0 9
34 12 143 9 78 -2 145 -7 148 -10z m4089 3 c14 -2 31 -4 39 -4 15 -1 11 -33
-21 -153 -17 -67 -23 -78 -42 -78 -34 0 -906 167 -914 175 -2 2 4 17 12 34
l16 30 128 4 c130 4 737 -2 782 -8z m-3985 -5 l53 0 -6 -47 c-2 -27 -6 -49 -7
-51 -1 -1 -25 -5 -53 -9 l-50 -6 -11 52 c-14 68 -14 74 5 67 9 -3 39 -6 69 -6z
m4263 -16 l84 -7 -6 -31 c-25 -148 -38 -214 -45 -224 -6 -10 -40 -7 -151 13
-80 14 -145 25 -146 25 -1 0 9 42 22 93 12 50 25 105 29 121 6 28 6 28 68 22
34 -3 100 -9 145 -12z m383 -50 c81 -13 149 -24 152 -24 6 0 2 -18 -35 -157
l-30 -113 -37 6 c-184 27 -332 52 -335 55 -2 2 12 63 30 134 18 72 33 131 34
132 0 2 52 -5 221 -33z m449 -96 c226 -64 400 -150 400 -198 0 -49 -95 -65
-300 -50 -123 8 -352 31 -357 35 -2 1 6 33 16 71 11 38 25 96 31 130 l12 61
47 -9 c25 -6 93 -23 151 -40z m-5034 -38 c15 -80 44 -149 90 -211 l34 -47 -50
-11 c-28 -6 -52 -11 -54 -11 -12 0 -136 302 -136 331 0 9 43 17 79 15 22 -1
26 -8 37 -66z m-108 -28 c13 -42 43 -118 67 -167 24 -50 42 -90 42 -91 -1 0
-67 -13 -147 -28 -80 -15 -154 -30 -166 -33 -19 -4 -24 6 -52 104 -46 159 -64
235 -58 241 8 8 225 50 261 51 29 1 31 -2 53 -77z m3650 33 c37 -8 132 -26
212 -41 80 -14 147 -28 149 -30 3 -3 -19 -65 -23 -64 -35 8 -370 121 -391 133
-37 20 -31 21 53 2z m-3945 -268 c21 -48 37 -89 37 -91 0 -2 -15 -6 -32 -9
-18 -3 -96 -17 -173 -31 -77 -14 -148 -26 -158 -26 -20 0 -22 6 -83 180 l-44
125 53 18 c28 10 111 33 182 51 l130 33 26 -81 c14 -44 42 -120 62 -169z
m2983 224 c-4 -6 -14 -7 -23 -4 -15 6 -14 7 3 13 22 9 29 6 20 -9z m144 -11
c8 -5 11 -10 5 -10 -5 0 -17 5 -25 10 -8 5 -10 10 -5 10 6 0 17 -5 25 -10z
m-379 -37 c-9 -16 -10 -14 -11 12 0 21 3 26 11 18 8 -8 8 -16 0 -30z m1737 -7
c73 -13 136 -26 139 -30 6 -6 -15 -96 -26 -108 -4 -4 -60 13 -126 37 -66 25
-124 45 -130 45 -5 0 -16 4 -24 9 -12 8 -12 14 -1 40 7 17 18 31 24 31 6 0 71
-11 144 -24z m-1705 -1 c4 -8 2 -17 -3 -20 -6 -4 -10 3 -10 14 0 25 6 27 13 6z
m2112 -66 c83 -12 154 -26 159 -30 8 -8 -47 -185 -63 -202 -4 -4 -46 10 -92
31 -46 21 -115 51 -154 65 -104 40 -100 36 -80 98 23 72 23 72 54 66 14 -3 94
-15 176 -28z m-5421 -50 c9 -33 32 -99 50 -144 l33 -84 -26 -5 c-145 -29 -469
-42 -492 -19 -27 26 58 119 183 200 59 38 209 112 229 113 3 0 13 -27 23 -61z
m5115 -55 c7 -6 -50 -158 -76 -202 -14 -24 -22 -46 -19 -49 7 -7 53 66 100
160 l38 75 144 -59 c79 -32 157 -65 174 -74 l29 -15 -28 -63 c-50 -109 -109
-232 -119 -246 -8 -10 -53 5 -228 77 -219 90 -476 201 -483 207 -2 2 10 21 26
42 40 53 86 128 119 195 l27 56 146 -50 c80 -28 148 -53 150 -54z m-1592 -10
c-3 -3 -12 -4 -19 -1 -8 3 -5 6 6 6 11 1 17 -2 13 -5z m-64 -29 c-3 -9 -8 -14
-10 -11 -3 3 -2 9 2 15 9 16 15 13 8 -4z m-20 -40 c-3 -9 -8 -14 -10 -11 -3 3
-2 9 2 15 9 16 15 13 8 -4z m-1375 -9 c47 -24 74 -62 79 -109 6 -50 2 -58 -73
-172 -70 -106 -180 -264 -422 -605 -311 -440 -648 -887 -659 -877 -7 8 35 103
90 203 57 104 62 113 217 399 54 99 162 297 240 440 170 310 242 443 300 550
58 110 89 154 119 170 34 18 75 19 109 1z m852 -66 c0 -5 -10 -10 -22 -9 -22
0 -22 1 -3 9 11 5 21 9 23 9 1 1 2 -3 2 -9z m-60 -14 c0 -2 -7 -7 -16 -10 -8
-3 -12 -2 -9 4 6 10 25 14 25 6z m1657 -10 c-3 -8 -1 -17 6 -20 7 -2 4 -5 -5
-5 -10 -1 -18 1 -18 3 0 10 13 36 17 36 3 0 3 -6 0 -14z m-2910 -2 c-3 -3 -12
-4 -19 -1 -8 3 -5 6 6 6 11 1 17 -2 13 -5z m3000 -28 c1 -1 -16 -19 -38 -40
-21 -22 -39 -37 -39 -33 0 3 7 13 17 22 14 14 14 18 2 27 -11 8 -11 9 3 5 9
-3 22 2 30 10 11 14 11 16 -2 11 -8 -3 -24 3 -35 14 -19 18 -19 19 20 2 22 -9
41 -17 42 -18z m-3089 17 c-20 -3 -25 -8 -21 -21 7 -18 5 -17 -16 11 -12 16
-10 17 25 16 29 -2 32 -3 12 -6z m1205 -20 c-7 -2 -19 -2 -25 0 -7 3 -2 5 12
5 14 0 19 -2 13 -5z m3097 -116 c184 -110 325 -240 378 -346 17 -35 29 -67 26
-72 -16 -26 -165 5 -384 78 -146 49 -389 139 -397 147 -2 1 16 36 40 78 23 41
60 111 81 156 l39 80 76 -41 c42 -22 105 -58 141 -80z m-1126 83 c45 -21 66
-36 66 -48 0 -31 -12 -62 -21 -56 -5 3 -7 10 -4 15 4 5 8 18 10 28 3 15 -1 18
-12 14 -11 -4 -14 -2 -9 5 9 15 -23 28 -74 31 -13 1 -13 2 0 12 12 8 11 9 -5
6 -11 -2 -19 -9 -17 -18 2 -8 0 -11 -4 -6 -4 4 -26 -10 -48 -30 l-40 -38 42
47 c23 26 42 52 42 58 0 14 -2 14 74 -20z m-1830 8 c-12 -22 -37 -48 -44 -48
-4 0 4 13 19 30 28 32 36 37 25 18z m1618 -38 c-22 -26 -24 -25 -10 5 6 13 15
22 19 19 5 -2 1 -14 -9 -24z m223 -21 c-10 -15 -25 -10 -19 6 4 8 10 12 15 9
5 -3 7 -10 4 -15z m-192 -14 c-3 -9 -8 -14 -10 -11 -3 3 -2 9 2 15 9 16 15 13
8 -4z m-2912 -22 c13 -16 12 -17 -3 -4 -17 13 -22 21 -14 21 2 0 10 -8 17 -17z
m156 -14 c-16 -22 -16 -22 -14 -1 0 11 5 18 9 16 4 -3 8 0 8 7 0 7 3 10 6 6 3
-3 -1 -16 -9 -28z m1003 -2 c0 -2 -19 -21 -42 -42 l-43 -40 40 43 c36 39 45
47 45 39z m936 -13 c-3 -9 -6 -21 -6 -27 0 -16 -20 14 -20 31 0 6 7 12 16 12
11 0 14 -5 10 -16z m1015 -91 c-12 -20 -14 -14 -5 12 4 9 9 14 11 11 3 -2 0
-13 -6 -23z m444 -1 c26 -28 53 -69 95 -145 l21 -38 -26 -44 c-26 -45 -57 -76
-33 -34 7 13 15 26 18 29 8 8 30 49 30 55 0 4 -4 3 -10 0 -5 -3 -7 0 -5 8 3 7
-3 22 -15 32 -11 10 -20 24 -20 32 0 8 -5 11 -11 8 -6 -4 -8 -13 -5 -20 3 -8
-2 -12 -12 -11 -19 3 -24 31 -5 31 6 0 15 3 19 8 4 4 2 7 -4 7 -6 0 -12 10
-14 23 -2 16 -9 22 -25 21 -13 0 -23 3 -23 8 0 4 -5 8 -11 8 -6 0 -9 -6 -6
-12 2 -7 1 -22 -4 -33 -5 -14 -8 -5 -8 31 -1 73 11 81 54 36z m-3102 -27 c-3
-9 -8 -14 -10 -11 -3 3 -2 9 2 15 9 16 15 13 8 -4z m3227 -7 c30 -12 56 -23
58 -24 6 -4 -38 -84 -46 -84 -5 0 -16 15 -25 33 -9 17 -26 47 -37 65 -26 38
-22 39 50 10z m-2701 -2 c-2 -2 -15 -9 -29 -15 -24 -11 -24 -11 -6 3 16 13 49
24 35 12z m2591 -16 c0 -5 -2 -10 -4 -10 -3 0 -8 5 -11 10 -3 6 -1 10 4 10 6
0 11 -4 11 -10z m-3149 -23 c-10 -9 -11 -8 -5 6 3 10 9 15 12 12 3 -3 0 -11
-7 -18z m-11 -27 c0 -5 -5 -10 -11 -10 -5 0 -7 5 -4 10 3 6 8 10 11 10 2 0 4
-4 4 -10z m3100 -4 c0 -7 -7 -29 -16 -47 -11 -25 -14 -27 -10 -9 3 14 6 35 6
48 0 12 5 22 10 22 6 0 10 -6 10 -14z m-3043 -12 c-3 -3 -12 -4 -19 -1 -8 3
-5 6 6 6 11 1 17 -2 13 -5z m266 -1 c-7 -2 -19 -2 -25 0 -7 3 -2 5 12 5 14 0
19 -2 13 -5z m-95 -10 c-21 -2 -57 -2 -80 0 -24 2 -7 4 37 4 44 0 63 -2 43 -4z
m3075 -140 c-4 -10 -2 -14 4 -10 5 3 17 -11 27 -31 12 -27 13 -32 2 -17 -37
49 -38 50 -63 21 -32 -38 -29 -22 5 20 31 39 34 41 25 17z m57 -98 c0 -8 -4
-15 -10 -15 -5 0 -7 7 -4 15 4 8 8 15 10 15 2 0 4 -7 4 -15z m-3203 -287 c-3
-7 -5 -2 -5 12 0 14 2 19 5 13 2 -7 2 -19 0 -25z m0 -50 c-3 -7 -5 -2 -5 12 0
14 2 19 5 13 2 -7 2 -19 0 -25z m-10 -130 c-3 -8 -6 -5 -6 6 -1 11 2 17 5 13
3 -3 4 -12 1 -19z"/>
<path d="M3138 2883 c7 -3 16 -2 19 1 4 3 -2 6 -13 5 -11 0 -14 -3 -6 -6z"/>
<path d="M3050 2856 c0 -2 7 -7 16 -10 8 -3 12 -2 9 4 -6 10 -25 14 -25 6z"/>
<path d="M2616 2733 c-6 -14 -5 -15 5 -6 7 7 10 15 7 18 -3 3 -9 -2 -12 -12z"/>
<path d="M2473 1845 c0 -8 4 -12 9 -9 4 3 8 9 8 15 0 5 -4 9 -8 9 -5 0 -9 -7
-9 -15z"/>
<path d="M2405 1830 c-13 -6 -15 -9 -5 -9 8 0 22 4 30 9 18 12 2 12 -25 0z"/>
<path d="M2486 1791 c-4 -5 -2 -12 3 -15 5 -4 12 -2 15 3 4 5 2 12 -3 15 -5 4
-12 2 -15 -3z"/>
<path d="M2436 1701 c-4 -5 -2 -12 3 -15 5 -4 12 -2 15 3 4 5 2 12 -3 15 -5 4
-12 2 -15 -3z"/>
<path d="M2846 1637 c3 -10 9 -15 12 -12 3 3 0 11 -7 18 -10 9 -11 8 -5 -6z"/>
<path d="M2830 1625 c0 -5 5 -17 10 -25 5 -8 10 -10 10 -5 0 6 -5 17 -10 25
-5 8 -10 11 -10 5z"/>
<path d="M1845 2176 l-31 -65 26 7 c14 4 63 7 110 6 100 0 153 -16 299 -86 83
-41 105 -48 112 -37 14 22 13 24 -63 95 -48 44 -99 79 -148 103 -68 32 -85 36
-175 39 l-100 3 -30 -65z"/>
<path d="M3385 2231 c-82 -21 -194 -92 -270 -170 -35 -37 -38 -43 -24 -57 15
-14 25 -11 115 34 137 68 203 87 299 87 44 0 92 -3 107 -8 l27 -7 -29 62 -30
63 -82 2 c-46 1 -96 -2 -113 -6z"/>
<path d="M3981 2304 c0 -11 3 -14 6 -6 3 7 2 16 -1 19 -3 4 -6 -2 -5 -13z"/>
<path d="M3950 2264 c0 -8 5 -12 10 -9 6 4 8 11 5 16 -9 14 -15 11 -15 -7z"/>
<path d="M5806 1516 c10 -8 21 -12 24 -10 5 6 -21 24 -34 24 -6 0 -1 -6 10
-14z"/>
</g>
</svg>
